<?xml version="1.0" encoding="UTF-8" standalone="no"?>
<!-- Created with Inkscape (http://www.inkscape.org/) -->

<svg
   width="150"
   height="50"
   viewBox="0 0 39.6875 13.229167"
   version="1.1"
   id="svg5"
   xmlns="http://www.w3.org/2000/svg"
   xmlns:svg="http://www.w3.org/2000/svg">
  <defs
     id="defs2">
    <radialGradient
       id="radial-gradient"
       cx="-14491.11"
       cy="9293.7197"
       fx="-14519.876"
       r="450.88"
       gradientTransform="matrix(0.76,0.03,0.05,-1.12,11485.79,11147.95)"
       gradientUnits="userSpaceOnUse">
      <stop
         offset="0.1"
         stop-color="#ffea00"
         id="stop5868" />
      <stop
         offset="0.17"
         stop-color="#ffde00"
         id="stop5870" />
      <stop
         offset="0.28"
         stop-color="#ffbf00"
         id="stop5872" />
      <stop
         offset="0.43"
         stop-color="#ff8e00"
         id="stop5874" />
      <stop
         offset="0.77"
         stop-color="#ff272d"
         id="stop5876" />
      <stop
         offset="0.87"
         stop-color="#e0255a"
         id="stop5878" />
      <stop
         offset="0.95"
         stop-color="#cc2477"
         id="stop5880" />
      <stop
         offset="1"
         stop-color="#c42482"
         id="stop5882" />
    </radialGradient>
    <radialGradient
       id="radial-gradient-2"
       cx="-7587.48"
       cy="8863.4805"
       r="791.22998"
       gradientTransform="matrix(1.23,0,0,-1.23,9957.91,11055.45)"
       gradientUnits="userSpaceOnUse">
      <stop
         offset="0"
         stop-color="#00ccda"
         id="stop5885" />
      <stop
         offset="0.22"
         stop-color="#0083ff"
         id="stop5887" />
      <stop
         offset="0.26"
         stop-color="#007af9"
         id="stop5889" />
      <stop
         offset="0.33"
         stop-color="#0060e8"
         id="stop5891" />
      <stop
         offset="0.33"
         stop-color="#005fe7"
         id="stop5893" />
      <stop
         offset="0.44"
         stop-color="#2639ad"
         id="stop5895" />
      <stop
         offset="0.52"
         stop-color="#401e84"
         id="stop5897" />
      <stop
         offset="0.57"
         stop-color="#4a1475"
         id="stop5899" />
    </radialGradient>
    <linearGradient
       id="linear-gradient"
       x1="540.64001"
       y1="254.8"
       x2="349.20001"
       y2="881.03003"
       gradientTransform="matrix(1,0,0,-1,0,984)"
       gradientUnits="userSpaceOnUse">
      <stop
         offset="0"
         stop-color="#000f43"
         stop-opacity="0.4"
         id="stop5902" />
      <stop
         offset="0.48"
         stop-color="#001962"
         stop-opacity="0.17"
         id="stop5904" />
      <stop
         offset="1"
         stop-color="#002079"
         stop-opacity="0"
         id="stop5906" />
    </linearGradient>
    <radialGradient
       id="radial-gradient-3"
       cx="-8337.7402"
       cy="7467.8901"
       r="266.89001"
       gradientTransform="matrix(1.22,0.12,0.12,-1.22,10240.78,10765.16)"
       gradientUnits="userSpaceOnUse">
      <stop
         offset="0"
         stop-color="#ffea00"
         id="stop5909" />
      <stop
         offset="0.5"
         stop-color="#ff272d"
         id="stop5911" />
      <stop
         offset="1"
         stop-color="#c42482"
         id="stop5913" />
    </radialGradient>
    <radialGradient
       id="radial-gradient-4"
       cx="-8361.8896"
       cy="7723.7998"
       r="445.67999"
       gradientTransform="matrix(1.22,0.12,0.12,-1.22,10240.78,10765.16)"
       gradientUnits="userSpaceOnUse">
      <stop
         offset="0"
         stop-color="#ffe900"
         id="stop5916" />
      <stop
         offset="0.16"
         stop-color="#ffaf0e"
         id="stop5918" />
      <stop
         offset="0.32"
         stop-color="#ff7a1b"
         id="stop5920" />
      <stop
         offset="0.47"
         stop-color="#ff4e26"
         id="stop5922" />
      <stop
         offset="0.62"
         stop-color="#ff2c2e"
         id="stop5924" />
      <stop
         offset="0.76"
         stop-color="#ff1434"
         id="stop5926" />
      <stop
         offset="0.89"
         stop-color="#ff0538"
         id="stop5928" />
      <stop
         offset="1"
         stop-color="#ff0039"
         id="stop5930" />
    </radialGradient>
    <radialGradient
       id="radial-gradient-5"
       cx="-8298.8496"
       cy="7310.6602"
       r="408.95999"
       gradientTransform="matrix(1.22,0.12,0.12,-1.22,10240.78,10765.16)"
       gradientUnits="userSpaceOnUse">
      <stop
         offset="0"
         stop-color="#ff272d"
         id="stop5933" />
      <stop
         offset="0.5"
         stop-color="#c42482"
         id="stop5935" />
      <stop
         offset="0.99"
         stop-color="#620700"
         id="stop5937" />
    </radialGradient>
    <radialGradient
       id="radial-gradient-6"
       cx="715.19"
       cy="589.96002"
       fx="743.1665"
       fy="576.13239"
       r="782.17999"
       gradientTransform="matrix(1,0,0,-1,0,984)"
       gradientUnits="userSpaceOnUse">
      <stop
         offset="0.16"
         stop-color="#ffea00"
         id="stop5940" />
      <stop
         offset="0.23"
         stop-color="#ffde00"
         id="stop5942" />
      <stop
         offset="0.37"
         stop-color="#ffbf00"
         id="stop5944" />
      <stop
         offset="0.54"
         stop-color="#ff8e00"
         id="stop5946" />
      <stop
         offset="0.76"
         stop-color="#ff272d"
         id="stop5948" />
      <stop
         offset="0.8"
         stop-color="#f92433"
         id="stop5950" />
      <stop
         offset="0.84"
         stop-color="#e91c45"
         id="stop5952" />
      <stop
         offset="0.89"
         stop-color="#cf0e62"
         id="stop5954" />
      <stop
         offset="0.94"
         stop-color="#b5007f"
         id="stop5956" />
    </radialGradient>
    <radialGradient
       id="radial-gradient-7"
       cx="670.34003"
       cy="952.71002"
       r="891.45001"
       gradientTransform="matrix(1,0,0,-1,0,984)"
       gradientUnits="userSpaceOnUse">
      <stop
         offset="0.28"
         stop-color="#ffea00"
         id="stop5959" />
      <stop
         offset="0.4"
         stop-color="#fd0"
         id="stop5961" />
      <stop
         offset="0.63"
         stop-color="#ffba00"
         id="stop5963" />
      <stop
         offset="0.86"
         stop-color="#ff9100"
         id="stop5965" />
      <stop
         offset="0.93"
         stop-color="#ff6711"
         id="stop5967" />
      <stop
         offset="0.99"
         stop-color="#ff4a1d"
         id="stop5969" />
    </radialGradient>
    <linearGradient
       id="linear-gradient-2"
       x1="-9023.4502"
       y1="7636.9199"
       x2="-8716.4199"
       y2="7715.1802"
       gradientTransform="matrix(1.22,0.12,0.12,-1.22,10240.78,10765.16)"
       gradientUnits="userSpaceOnUse">
      <stop
         offset="0"
         stop-color="#c42482"
         stop-opacity="0.5"
         id="stop5972" />
      <stop
         offset="0.47"
         stop-color="#ff272d"
         stop-opacity="0.5"
         id="stop5974" />
      <stop
         offset="0.49"
         stop-color="#ff2c2c"
         stop-opacity="0.51"
         id="stop5976" />
      <stop
         offset="0.68"
         stop-color="#ff7a1a"
         stop-opacity="0.72"
         id="stop5978" />
      <stop
         offset="0.83"
         stop-color="#ffb20d"
         stop-opacity="0.87"
         id="stop5980" />
      <stop
         offset="0.94"
         stop-color="#ffd605"
         stop-opacity="0.96"
         id="stop5982" />
      <stop
         offset="1"
         stop-color="#ffe302"
         id="stop5984" />
    </linearGradient>
    <linearGradient
       id="linear-gradient-3"
       x1="188.87"
       y1="2081.23"
       x2="134.3"
       y2="2221.0801"
       gradientTransform="matrix(0.99,0.1,0.1,-0.99,-250.09,2306.15)"
       gradientUnits="userSpaceOnUse">
      <stop
         offset="0"
         stop-color="#891551"
         stop-opacity="0.6"
         id="stop5987" />
      <stop
         offset="1"
         stop-color="#c42482"
         stop-opacity="0"
         id="stop5989" />
    </linearGradient>
    <linearGradient
       id="linear-gradient-4"
       x1="-38.43"
       y1="278.04001"
       x2="55.68"
       y2="171.16"
       gradientTransform="matrix(0.99,0.1,0.1,-0.99,229.04,745.74)"
       gradientUnits="userSpaceOnUse">
      <stop
         offset="0.01"
         stop-color="#891551"
         stop-opacity="0.5"
         id="stop5992" />
      <stop
         offset="0.48"
         stop-color="#ff272d"
         stop-opacity="0.5"
         id="stop5994" />
      <stop
         offset="1"
         stop-color="#ff272d"
         stop-opacity="0"
         id="stop5996" />
    </linearGradient>
    <linearGradient
       id="linear-gradient-5"
       x1="142.46001"
       y1="93.68"
       x2="142.53"
       y2="168.46001"
       gradientTransform="matrix(0.99,0.1,0.1,-0.99,229.04,745.74)"
       gradientUnits="userSpaceOnUse">
      <stop
         offset="0"
         stop-color="#c42482"
         id="stop5999" />
      <stop
         offset="0.08"
         stop-color="#c42482"
         stop-opacity="0.81"
         id="stop6001" />
      <stop
         offset="0.21"
         stop-color="#c42482"
         stop-opacity="0.57"
         id="stop6003" />
      <stop
         offset="0.33"
         stop-color="#c42482"
         stop-opacity="0.36"
         id="stop6005" />
      <stop
         offset="0.45"
         stop-color="#c42482"
         stop-opacity="0.2"
         id="stop6007" />
      <stop
         offset="0.56"
         stop-color="#c42482"
         stop-opacity="0.09"
         id="stop6009" />
      <stop
         offset="0.67"
         stop-color="#c42482"
         stop-opacity="0.02"
         id="stop6011" />
      <stop
         offset="0.77"
         stop-color="#c42482"
         stop-opacity="0"
         id="stop6013" />
    </linearGradient>
    <linearGradient
       id="linear-gradient-6"
       x1="620.52002"
       y1="947.88"
       x2="926.17999"
       y2="264.39001"
       gradientTransform="matrix(1,0,0,-1,0,984)"
       gradientUnits="userSpaceOnUse">
      <stop
         offset="0"
         stop-color="#fff14f"
         id="stop6016" />
      <stop
         offset="0.27"
         stop-color="#ffee4c"
         id="stop6018" />
      <stop
         offset="0.45"
         stop-color="#ffe643"
         id="stop6020" />
      <stop
         offset="0.61"
         stop-color="#ffd834"
         id="stop6022" />
      <stop
         offset="0.76"
         stop-color="#ffc41e"
         id="stop6024" />
      <stop
         offset="0.89"
         stop-color="#ffab02"
         id="stop6026" />
      <stop
         offset="0.9"
         stop-color="#ffa900"
         id="stop6028" />
      <stop
         offset="0.95"
         stop-color="#ffa000"
         id="stop6030" />
      <stop
         offset="1"
         stop-color="#ff9100"
         id="stop6032" />
    </linearGradient>
    <linearGradient
       id="linear-gradient-7"
       x1="680.88"
       y1="554.78998"
       x2="536.09998"
       y2="166.03999"
       gradientTransform="matrix(1,0,0,-1,0,984)"
       gradientUnits="userSpaceOnUse">
      <stop
         offset="0"
         stop-color="#ff8e00"
         id="stop6035" />
      <stop
         offset="0.04"
         stop-color="#ff8e00"
         stop-opacity="0.86"
         id="stop6037" />
      <stop
         offset="0.08"
         stop-color="#ff8e00"
         stop-opacity="0.73"
         id="stop6039" />
      <stop
         offset="0.13"
         stop-color="#ff8e00"
         stop-opacity="0.63"
         id="stop6041" />
      <stop
         offset="0.18"
         stop-color="#ff8e00"
         stop-opacity="0.56"
         id="stop6043" />
      <stop
         offset="0.23"
         stop-color="#ff8e00"
         stop-opacity="0.51"
         id="stop6045" />
      <stop
         offset="0.28"
         stop-color="#ff8e00"
         stop-opacity="0.5"
         id="stop6047" />
      <stop
         offset="0.39"
         stop-color="#ff8e00"
         stop-opacity="0.48"
         id="stop6049" />
      <stop
         offset="0.52"
         stop-color="#ff8e00"
         stop-opacity="0.42"
         id="stop6051" />
      <stop
         offset="0.68"
         stop-color="#ff8e00"
         stop-opacity="0.31"
         id="stop6053" />
      <stop
         offset="0.84"
         stop-color="#ff8e00"
         stop-opacity="0.17"
         id="stop6055" />
      <stop
         offset="1"
         stop-color="#ff8e00"
         stop-opacity="0"
         id="stop6057" />
    </linearGradient>
  </defs>
  <g
     aria-label="ADD-ON"
     id="text27478"
     style="font-size:10.5833px;stroke-width:0.264583" />
  <text
     xml:space="preserve"
     style="font-style:normal;font-weight:normal;font-size:10.5833px;line-height:1.25;font-family:sans-serif;fill:#000000;fill-opacity:1;stroke:none;stroke-width:0.264583"
     x="19.646471"
     y="9.2436762"
     id="text60401"><tspan
       id="tspan60399"
       style="stroke-width:0.264583"
       x="19.646471"
       y="9.2436762"></tspan><tspan
       style="stroke-width:0.264583"
       id="tspan60403"
       x="19.646471"
       y="22.472801" /><tspan
       style="stroke-width:0.264583"
       x="19.646471"
       y="35.701927"
       id="tspan60405" /><tspan
       style="stroke-width:0.264583"
       x="19.646471"
       y="48.931049"
       id="tspan60407" /><tspan
       style="stroke-width:0.264583"
       x="19.646471"
       y="62.160175"
       id="tspan60409" /><tspan
       style="stroke-width:0.264583"
       x="19.646471"
       y="75.389297"
       id="tspan60411" /><tspan
       style="stroke-width:0.264583"
       x="19.646471"
       y="88.618423"
       id="tspan60413" /><tspan
       style="stroke-width:0.264583"
       x="19.646471"
       y="101.84755"
       id="tspan60415" /><tspan
       style="stroke-width:0.264583"
       x="19.646471"
       y="115.07668"
       id="tspan60417" /><tspan
       style="stroke-width:0.264583"
       x="19.646471"
       y="128.3058"
       id="tspan60419" /><tspan
       style="stroke-width:0.264583"
       x="19.646471"
       y="141.53493"
       id="tspan60421" /><tspan
       style="stroke-width:0.264583"
       x="19.646471"
       y="154.76405"
       id="tspan60423" /><tspan
       style="stroke-width:0.264583"
       x="19.646471"
       y="167.99316"
       id="tspan60425" /><tspan
       style="stroke-width:0.264583"
       x="19.646471"
       y="181.22229"
       id="tspan60427" /><tspan
       style="stroke-width:0.264583"
       x="19.646471"
       y="194.45142"
       id="tspan60429" /><tspan
       style="stroke-width:0.264583"
       x="19.646471"
       y="207.68054"
       id="tspan60431" /><tspan
       style="stroke-width:0.264583"
       x="19.646471"
       y="220.90967"
       id="tspan60433" /><tspan
       style="stroke-width:0.264583"
       x="19.646471"
       y="234.13879"
       id="tspan60435" /></text>
  <g
     aria-label="App Runner"
     id="text67339"
     style="font-size:4.58611px;line-height:1.25;fill:#ffffff;stroke-width:0.264583" />
  <g
     id="g92963">
    <path
       style="color:#000000;fill:#1d99f3;stroke-width:21.1338;stroke-linecap:round;stroke-linejoin:round;stroke-miterlimit:2.6;-inkscape-stroke:none;paint-order:fill markers stroke;fill-opacity:1"
       d="M 2.0988898,-7.5612391e-8 H 37.588611 C 38.751395,-7.5612391e-8 39.6875,0.93610468 39.6875,2.0988895 v 9.0313875 c 0,1.162785 -0.936105,2.09889 -2.098889,2.09889 H 2.0988898 C 0.93610501,13.229167 2.5e-7,12.293062 2.5e-7,11.130277 V 2.0988895 C 2.5e-7,0.93610468 0.93610501,-7.5612391e-8 2.0988898,-7.5612391e-8 Z"
       id="rect846" />
    <path
       d="M 7.8721123,1.8597516 6.2905834,2.0111526 V 8.5234174 L 7.8553867,8.2878335 V 5.5113007 L 9.9587872,8.5908417 11.607769,8.0690794 9.4539362,5.1074634 11.624642,2.3140896 9.9420622,1.9272397 7.8554234,4.7204973 Z m -3.5849441,1.586932 c -0.017859,0.00188 -0.035107,0.00975 -0.048518,0.023212 l -0.620717,0.6206076 c -0.026098,0.026175 -0.031014,0.066757 -0.011774,0.098448 l 0.72673,1.1969208 C 4.203993,5.6025671 4.1006848,5.8362085 4.0268502,6.0826747 l -1.334176,0.2775128 c -0.03712,0.00769 -0.063865,0.040578 -0.063865,0.07867 v 0.8777012 c 0,0.037125 0.025395,0.069269 0.061164,0.077913 l 1.2949535,0.3165275 c 0.069056,0.285451 0.1760656,0.5560557 0.3174968,0.8047683 L 3.5528661,9.6587601 c -0.020913,0.03195 -0.016542,0.074024 0.010477,0.1009301 l 0.620496,0.6206068 c 0.026098,0.02603 0.066839,0.03112 0.098665,0.012 L 5.4570723,9.6789499 c 0.2307188,0.1331349 0.479524,0.2379089 0.7424992,0.3089593 l 0.2740509,1.3176358 c 0.00771,0.03735 0.040715,0.06387 0.078562,0.06387 h 0.8778105 c 0.036903,0 0.069107,-0.0252 0.077915,-0.06139 L 7.8307,9.9876729 C 8.1017807,9.9145151 8.358158,9.8054737 8.5945198,9.6662862 l 1.1574754,0.7589318 c 0.03183,0.02096 0.07392,0.01676 0.100933,-0.01024 L 10.473645,9.7943778 c 0.02626,-0.026249 0.03096,-0.066836 0.01167,-0.098444 L 10.062768,8.9995621 9.9260642,9.0427911 c -0.01993,0.0063 -0.04166,-0.00114 -0.05338,-0.018486 0,0 -0.269515,-0.3945374 -0.6175919,-0.9039886 -0.4161141,0.8143682 -1.2626792,1.3722276 -2.2402908,1.3722276 -1.3889483,0 -2.514994,-1.1260876 -2.514994,-2.5151038 0,-1.0218013 0.6094685,-1.9005677 1.4843749,-2.2942201 V 4.034379 C 5.8249421,4.0900847 5.671002,4.1572505 5.5247953,4.2368959 5.5246885,4.2367982 5.5245813,4.2365255 5.5241603,4.236155 L 4.3394467,3.4591365 c -0.015954,-0.010425 -0.034449,-0.014586 -0.052301,-0.01275 z"
       fill="#1d99f3"
       id="path9153"
       style="fill:#ffffff;stroke-width:0.264583" />
    <path
       d="m 14.521993,3.4615593 -1.077736,2.623255 q -0.01835,0.055033 -0.06421,0.087136 -0.04586,0.032103 -0.09631,0.032103 -0.08714,0 -0.128411,-0.045861 -0.04127,-0.045861 -0.04127,-0.1100667 -0.0046,-0.032103 0.0092,-0.068792 l 1.187803,-2.8892494 q 0.02293,-0.064205 0.06879,-0.091722 0.05045,-0.032103 0.110067,-0.027517 0.05962,0 0.10548,0.032103 0.05045,0.032103 0.06879,0.087136 l 1.183217,2.8617327 q 0.01376,0.036689 0.01376,0.073378 0,0.08255 -0.05503,0.1329972 -0.05503,0.045861 -0.123825,0.045861 -0.05503,0 -0.100895,-0.032103 -0.04586,-0.032103 -0.06879,-0.091722 L 14.421098,3.4569732 Z M 13.673562,5.3372784 13.82949,4.9795618 h 1.362075 l 0.06879,0.3577166 z"
       style="font-size:4.58611px;line-height:1.25;fill:#ffffff;stroke-width:0.264583;font-weight:500;font-family:Quicksand;-inkscape-font-specification:'Quicksand Medium'"
       id="path92862" />
    <path
       d="m 17.470857,3.7871732 q 0.311856,0 0.559506,0.1559277 0.24765,0.1559277 0.389819,0.4310943 0.146756,0.2751667 0.146756,0.6328832 0,0.3531305 -0.146756,0.6328832 -0.142169,0.2751666 -0.389819,0.4356805 -0.243064,0.1559277 -0.550333,0.1559277 -0.169687,0 -0.321028,-0.050447 Q 17.012246,6.1260893 16.888421,6.0435393 16.769182,5.9564032 16.686632,5.8509227 16.604082,5.7408561 16.567394,5.6353755 L 16.668288,5.57117 v 1.3529025 q 0,0.077964 -0.05045,0.1329972 -0.05045,0.055033 -0.132997,0.055033 -0.07796,0 -0.132998,-0.055033 -0.05045,-0.050447 -0.05045,-0.1329972 V 3.9935481 q 0,-0.077964 0.05045,-0.1284111 0.05503,-0.055033 0.132998,-0.055033 0.08255,0 0.132997,0.055033 0.05045,0.050447 0.05045,0.1284111 v 0.4081638 l -0.06879,-0.036689 q 0.0321,-0.1146527 0.110067,-0.2201333 0.08255,-0.1054805 0.197203,-0.1834444 0.119239,-0.08255 0.261408,-0.128411 0.146756,-0.045861 0.302683,-0.045861 z m -0.04127,0.3393721 q -0.229305,0 -0.408163,0.1146528 -0.174273,0.1146527 -0.275167,0.3118554 -0.09631,0.1972028 -0.09631,0.4540249 0,0.2522361 0.09631,0.4540249 0.100894,0.2017889 0.275167,0.3164416 0.178858,0.1146528 0.408163,0.1146528 0.229306,0 0.403578,-0.1146528 0.174272,-0.1146527 0.275167,-0.3164416 0.100894,-0.2017888 0.100894,-0.4540249 0,-0.2568221 -0.100894,-0.4540249 Q 18.007432,4.3558508 17.83316,4.2411981 17.658888,4.1265453 17.429582,4.1265453 Z"
       style="font-size:4.58611px;line-height:1.25;fill:#ffffff;stroke-width:0.264583;font-weight:500;font-family:Quicksand;-inkscape-font-specification:'Quicksand Medium'"
       id="path92864" />
    <path
       d="m 20.263795,3.7871732 q 0.311856,0 0.559505,0.1559277 0.24765,0.1559277 0.38982,0.4310943 0.146755,0.2751667 0.146755,0.6328832 0,0.3531305 -0.146755,0.6328832 -0.14217,0.2751666 -0.38982,0.4356805 -0.243063,0.1559277 -0.550333,0.1559277 -0.169686,0 -0.321027,-0.050447 Q 19.805184,6.1260893 19.681359,6.0435393 19.56212,5.9564032 19.47957,5.8509227 19.39702,5.7408561 19.360331,5.6353755 L 19.461226,5.57117 v 1.3529025 q 0,0.077964 -0.05045,0.1329972 -0.05045,0.055033 -0.132998,0.055033 -0.07796,0 -0.132997,-0.055033 -0.05045,-0.050447 -0.05045,-0.1329972 V 3.9935481 q 0,-0.077964 0.05045,-0.1284111 0.05503,-0.055033 0.132997,-0.055033 0.08255,0 0.132998,0.055033 0.05045,0.050447 0.05045,0.1284111 v 0.4081638 l -0.06879,-0.036689 q 0.0321,-0.1146527 0.110067,-0.2201333 0.08255,-0.1054805 0.197203,-0.1834444 0.119238,-0.08255 0.261408,-0.128411 0.146755,-0.045861 0.302683,-0.045861 z m -0.04127,0.3393721 q -0.229305,0 -0.408164,0.1146528 -0.174272,0.1146527 -0.275166,0.3118554 -0.09631,0.1972028 -0.09631,0.4540249 0,0.2522361 0.09631,0.4540249 0.100894,0.2017889 0.275166,0.3164416 0.178859,0.1146528 0.408164,0.1146528 0.229306,0 0.403578,-0.1146528 0.174272,-0.1146527 0.275166,-0.3164416 0.100895,-0.2017888 0.100895,-0.4540249 0,-0.2568221 -0.100895,-0.4540249 Q 20.80037,4.3558508 20.626098,4.2411981 20.451826,4.1265453 20.22252,4.1265453 Z"
       style="font-size:4.58611px;line-height:1.25;fill:#ffffff;stroke-width:0.264583;font-weight:500;font-family:Quicksand;-inkscape-font-specification:'Quicksand Medium'"
       id="path92866" />
    <path
       d="m 23.42362,6.194881 q -0.08714,0 -0.151342,-0.055033 -0.05962,-0.055033 -0.05962,-0.1329972 V 3.1680483 q 0,-0.077964 0.05045,-0.1284111 0.05503,-0.055033 0.132997,-0.055033 h 1.265767 q 0.256822,0 0.463197,0.1192388 0.206375,0.1146528 0.325614,0.3210278 0.123824,0.2017888 0.123824,0.4677832 0,0.1926166 -0.07338,0.3623027 -0.07338,0.1650999 -0.201789,0.2889249 -0.128411,0.1192389 -0.293511,0.1834444 L 24.904933,4.653948 q 0.155928,0.036689 0.279753,0.1329972 0.123825,0.091722 0.201789,0.2384777 0.07796,0.1421694 0.08255,0.334786 0.0092,0.1696861 0.02293,0.2705805 0.01376,0.1008944 0.04127,0.1605139 0.02752,0.055033 0.07796,0.087136 0.06421,0.041275 0.08255,0.1100666 0.02293,0.068792 -0.02293,0.1329972 -0.02752,0.041275 -0.07796,0.059619 -0.05045,0.013758 -0.100895,0.00917 -0.05045,-0.00459 -0.08714,-0.027517 -0.07338,-0.041275 -0.142169,-0.1192389 -0.06879,-0.08255 -0.114653,-0.2338916 -0.04586,-0.1513416 -0.04586,-0.4127499 0,-0.1467555 -0.04586,-0.2430638 -0.04586,-0.096308 -0.123825,-0.1559278 -0.07796,-0.059619 -0.174272,-0.08255 -0.09631,-0.02293 -0.197203,-0.02293 h -1.022702 l 0.05503,-0.08255 v 1.1969747 q 0,0.077964 -0.04586,0.1329972 -0.04586,0.055033 -0.123825,0.055033 z m 0.114653,-1.6326552 h 1.123597 q 0.132997,-0.00917 0.24765,-0.091722 0.119238,-0.08255 0.192616,-0.2293055 0.07796,-0.1513417 0.07796,-0.3393722 0,-0.2430638 -0.155928,-0.4035777 -0.151341,-0.1605138 -0.385233,-0.1605138 h -1.082322 l 0.03669,-0.087136 v 1.3941774 z"
       style="font-size:4.58611px;line-height:1.25;fill:#ffffff;stroke-width:0.264583;font-weight:500;font-family:Quicksand;-inkscape-font-specification:'Quicksand Medium'"
       id="path92868" />
    <path
       d="m 27.977629,3.823862 q 0.08255,0 0.132997,0.055033 0.05045,0.050447 0.05045,0.128411 v 1.2520081 q 0,0.4631971 -0.261408,0.7200193 -0.256822,0.252236 -0.720019,0.252236 -0.458611,0 -0.72002,-0.252236 Q 26.202804,5.7225116 26.202804,5.2593145 V 4.0073064 q 0,-0.077964 0.05045,-0.128411 0.05503,-0.055033 0.132997,-0.055033 0.08255,0 0.132998,0.055033 0.05045,0.050447 0.05045,0.128411 v 1.2520081 q 0,0.3118555 0.160514,0.4723693 0.160514,0.1605139 0.449439,0.1605139 0.298097,0 0.454024,-0.1605139 Q 27.794184,5.57117 27.794184,5.2593145 V 4.0073064 q 0,-0.077964 0.05045,-0.128411 0.05503,-0.055033 0.132997,-0.055033 z"
       style="font-size:4.58611px;line-height:1.25;fill:#ffffff;stroke-width:0.264583;font-weight:500;font-family:Quicksand;-inkscape-font-specification:'Quicksand Medium'"
       id="path92870" />
    <path
       d="m 30.018451,3.7642426 q 0.311855,0 0.490713,0.1284111 0.178859,0.1284111 0.252237,0.3439582 0.07796,0.2155472 0.07796,0.4815416 v 1.2886969 q 0,0.077964 -0.05503,0.1329972 -0.05045,0.055033 -0.128411,0.055033 -0.07796,0 -0.132997,-0.055033 -0.05045,-0.055033 -0.05045,-0.1329972 V 4.7273257 q 0,-0.1742722 -0.05503,-0.3118555 -0.05045,-0.1421694 -0.174272,-0.2247194 -0.119239,-0.087136 -0.3302,-0.087136 -0.192616,0 -0.35313,0.087136 -0.160514,0.08255 -0.256823,0.2247194 -0.09631,0.1375833 -0.09631,0.3118555 v 1.2795247 q 0,0.077964 -0.05503,0.1329972 -0.05045,0.055033 -0.128411,0.055033 -0.07796,0 -0.132997,-0.055033 -0.05045,-0.055033 -0.05045,-0.1329972 v -1.999544 q 0,-0.077964 0.05045,-0.128411 0.05503,-0.055033 0.132997,-0.055033 0.08255,0 0.132997,0.055033 0.05045,0.050447 0.05045,0.128411 v 0.3256139 l -0.09172,0.1008944 q 0.02293,-0.1192389 0.105481,-0.2384777 0.08255,-0.123825 0.206374,-0.2201333 0.123825,-0.096308 0.275167,-0.1513417 0.151342,-0.059619 0.316442,-0.059619 z"
       style="font-size:4.58611px;line-height:1.25;fill:#ffffff;stroke-width:0.264583;font-weight:500;font-family:Quicksand;-inkscape-font-specification:'Quicksand Medium'"
       id="path92872" />
    <path
       d="m 32.696737,3.7642426 q 0.311856,0 0.490714,0.1284111 0.178858,0.1284111 0.252236,0.3439582 0.07796,0.2155472 0.07796,0.4815416 v 1.2886969 q 0,0.077964 -0.05503,0.1329972 -0.05045,0.055033 -0.128411,0.055033 -0.07796,0 -0.132998,-0.055033 -0.05045,-0.055033 -0.05045,-0.1329972 V 4.7273257 q 0,-0.1742722 -0.05503,-0.3118555 -0.05045,-0.1421694 -0.174272,-0.2247194 -0.119239,-0.087136 -0.3302,-0.087136 -0.192617,0 -0.353131,0.087136 -0.160514,0.08255 -0.256822,0.2247194 -0.09631,0.1375833 -0.09631,0.3118555 v 1.2795247 q 0,0.077964 -0.05503,0.1329972 -0.05045,0.055033 -0.128411,0.055033 -0.07796,0 -0.132997,-0.055033 -0.05045,-0.055033 -0.05045,-0.1329972 v -1.999544 q 0,-0.077964 0.05045,-0.128411 0.05503,-0.055033 0.132997,-0.055033 0.08255,0 0.132998,0.055033 0.05045,0.050447 0.05045,0.128411 v 0.3256139 l -0.09172,0.1008944 q 0.02293,-0.1192389 0.10548,-0.2384777 0.08255,-0.123825 0.206375,-0.2201333 0.123825,-0.096308 0.275167,-0.1513417 0.151341,-0.059619 0.316441,-0.059619 z"
       style="font-size:4.58611px;line-height:1.25;fill:#ffffff;stroke-width:0.264583;font-weight:500;font-family:Quicksand;-inkscape-font-specification:'Quicksand Medium'"
       id="path92874" />
    <path
       d="m 35.269544,6.2407421 q -0.366889,0 -0.642055,-0.1559278 -0.275167,-0.1559277 -0.426508,-0.4265082 -0.151342,-0.2751666 -0.151342,-0.6328832 0,-0.3989916 0.155928,-0.6787443 0.160514,-0.2843388 0.41275,-0.4310944 0.252236,-0.1513416 0.536574,-0.1513416 0.215548,0 0.408164,0.077964 0.197203,0.077964 0.348545,0.2293055 0.155927,0.1467555 0.24765,0.3577166 0.09172,0.2063749 0.09631,0.4631971 -0.0046,0.073378 -0.05962,0.123825 -0.05503,0.050447 -0.128411,0.050447 h -1.811513 l -0.08255,-0.3164416 h 1.765652 l -0.07338,0.064205 V 4.7135674 Q 35.85198,4.5255369 35.741914,4.3925397 35.636433,4.2549564 35.480505,4.1815786 q -0.155927,-0.073378 -0.325614,-0.073378 -0.137583,0 -0.275166,0.050447 -0.132997,0.045861 -0.243064,0.1559277 -0.105481,0.1054805 -0.169686,0.2751666 -0.06421,0.1696861 -0.06421,0.4081638 0,0.2659944 0.105481,0.4677833 0.110067,0.2017888 0.302683,0.3210277 0.192617,0.1146527 0.444853,0.1146527 0.1651,0 0.284339,-0.041275 0.119239,-0.041275 0.201789,-0.1008944 0.08714,-0.064206 0.146755,-0.1284111 0.05962,-0.041275 0.119239,-0.041275 0.06421,0 0.110067,0.045861 0.04586,0.045861 0.04586,0.1100667 0,0.077964 -0.07338,0.1375833 -0.132997,0.1421694 -0.353131,0.252236 -0.215547,0.1054806 -0.467783,0.1054806 z"
       style="font-size:4.58611px;line-height:1.25;fill:#ffffff;stroke-width:0.264583;font-weight:500;font-family:Quicksand;-inkscape-font-specification:'Quicksand Medium'"
       id="path92876" />
    <path
       d="m 36.9664,6.194881 q -0.07796,0 -0.132997,-0.055033 -0.05045,-0.055033 -0.05045,-0.1329972 v -1.999544 q 0,-0.077964 0.05045,-0.128411 0.05503,-0.055033 0.132997,-0.055033 0.08255,0 0.132997,0.055033 0.05045,0.050447 0.05045,0.128411 V 4.612673 l -0.05503,-0.096308 q 0.02752,-0.1421695 0.09631,-0.2751666 0.07338,-0.1375834 0.183445,-0.2430639 0.110066,-0.1100666 0.252236,-0.1696861 0.142169,-0.064205 0.311855,-0.064205 0.100895,0 0.183445,0.050447 0.08714,0.045861 0.08714,0.1329972 0,0.096308 -0.05045,0.1421694 -0.05045,0.045861 -0.114653,0.045861 -0.05962,0 -0.114653,-0.022931 -0.05503,-0.027517 -0.137583,-0.027517 -0.114653,0 -0.229306,0.064206 -0.110066,0.059619 -0.206375,0.1742721 -0.09172,0.1146528 -0.151341,0.2614083 -0.05503,0.1421694 -0.05503,0.3072694 v 1.1144247 q 0,0.077964 -0.05503,0.1329972 -0.05045,0.055033 -0.128411,0.055033 z"
       style="font-size:4.58611px;line-height:1.25;fill:#ffffff;stroke-width:0.264583;font-weight:500;font-family:Quicksand;-inkscape-font-specification:'Quicksand Medium'"
       id="path92878" />
    <g
       aria-label="KDE Store"
       id="text79237"
       style="font-size:3.88056px;line-height:1.25;font-family:Quicksand;-inkscape-font-specification:Quicksand;stroke-width:0.264583">
      <path
         d="m 18.858447,11.240241 q -0.05045,0 -0.08537,-0.04269 l -1.102079,-1.3853598 0.182386,-0.1823863 1.10984,1.4047631 q 0.02716,0.0388 0.02716,0.08149 0,0.06209 -0.04657,0.09313 -0.04269,0.03104 -0.08537,0.03104 z m -0.04269,-2.7241528 q 0.04657,0 0.07761,0.034925 0.03493,0.034925 0.03493,0.077611 0,0.046567 -0.03493,0.081492 l -1.761774,1.6492378 -0.03104,-0.263878 1.629835,-1.5405822 q 0.03881,-0.038806 0.08537,-0.038806 z m -1.777297,2.7086308 q -0.05433,0 -0.08925,-0.03493 -0.03104,-0.03492 -0.03104,-0.08537 V 8.6286245 q 0,-0.050447 0.03493,-0.085372 0.03492,-0.034925 0.08925,-0.034925 0.05045,0 0.08537,0.034925 0.03493,0.034925 0.03493,0.085372 v 2.4757975 q -0.0039,0.05045 -0.0388,0.08537 -0.03493,0.03493 -0.08537,0.03493 z"
         style="fill:#ffffff"
         id="path92899" />
      <path
         d="m 20.643502,8.5083271 q 0.287161,0 0.500592,0.1086557 0.217311,0.1086557 0.357011,0.3026837 0.1397,0.1901474 0.20567,0.4346227 0.06985,0.2444752 0.06985,0.5122339 0,0.3725339 -0.124178,0.6829789 -0.120297,0.306564 -0.372534,0.492831 -0.248355,0.182386 -0.636411,0.182386 h -0.989543 q -0.04657,0 -0.08149,-0.03493 -0.03493,-0.03492 -0.03493,-0.08149 V 8.6247439 q 0,-0.046567 0.03493,-0.081492 0.03493,-0.034925 0.08149,-0.034925 z m -0.03881,2.4874389 q 0.329848,0 0.531637,-0.151342 0.201789,-0.151342 0.294922,-0.407459 0.09701,-0.259997 0.09701,-0.5704419 0,-0.2250725 -0.05433,-0.4268616 -0.05045,-0.2056697 -0.162983,-0.3608921 -0.108656,-0.1591029 -0.287162,-0.2483558 -0.174625,-0.093134 -0.4191,-0.093134 h -0.849843 l 0.02716,-0.034925 v 2.3322169 l -0.02328,-0.03881 z"
         style="fill:#ffffff"
         id="path92901" />
      <path
         d="m 22.444081,8.5083271 h 1.424166 q 0.04657,0 0.08149,0.034925 0.03493,0.031045 0.03493,0.081492 0,0.050447 -0.03493,0.081492 -0.03493,0.031044 -0.08149,0.031044 h -1.334913 l 0.0388,-0.065969 V 9.761748 l -0.04269,-0.050447 h 1.164168 q 0.04657,0 0.08149,0.034925 0.03492,0.034925 0.03492,0.081492 0,0.050447 -0.03492,0.081492 -0.03493,0.031045 -0.08149,0.031045 h -1.156407 l 0.03493,-0.038806 v 1.1176009 l -0.0194,-0.02328 h 1.31551 q 0.04657,0 0.08149,0.03492 0.03493,0.03493 0.03493,0.08149 0,0.05045 -0.03493,0.08149 -0.03493,0.03104 -0.08149,0.03104 h -1.424166 q -0.04657,0 -0.08149,-0.03493 -0.03493,-0.03492 -0.03493,-0.08149 V 8.6247439 q 0,-0.046567 0.03493,-0.081492 0.03493,-0.034925 0.08149,-0.034925 z"
         style="fill:#ffffff"
         id="path92903" />
      <path
         d="m 26.340169,11.263525 q -0.294923,0.0039 -0.512234,-0.09313 -0.217312,-0.09701 -0.41522,-0.291042 -0.0194,-0.01552 -0.03492,-0.0388 -0.01164,-0.02328 -0.01164,-0.05433 0,-0.04657 0.03493,-0.08537 0.03881,-0.0388 0.08537,-0.0388 0.04657,0 0.08537,0.0388 0.151342,0.162984 0.341489,0.248356 0.194028,0.08537 0.41522,0.08537 0.186267,0 0.329848,-0.05821 0.147461,-0.05821 0.232833,-0.166864 0.08537,-0.108656 0.08537,-0.252236 0,-0.178506 -0.09701,-0.287162 -0.09701,-0.112536 -0.256117,-0.182386 -0.159103,-0.07373 -0.353131,-0.131939 -0.159103,-0.046567 -0.302684,-0.1047752 -0.143581,-0.062089 -0.256117,-0.1474612 -0.112536,-0.089253 -0.174625,-0.2173114 -0.06209,-0.1280585 -0.06209,-0.3104448 0,-0.2056697 0.108656,-0.3647726 0.108655,-0.159103 0.306564,-0.2483559 0.201789,-0.093133 0.465667,-0.093133 0.228953,0 0.438503,0.077611 0.213431,0.077611 0.337609,0.228953 0.05821,0.062089 0.05821,0.1125363 0,0.038806 -0.0388,0.077611 -0.03881,0.038806 -0.08537,0.038806 -0.0388,0 -0.06597,-0.027164 Q 26.933894,8.8963831 26.833,8.8342941 26.732105,8.7683246 26.607927,8.7333996 26.48763,8.6984745 26.355691,8.6984745 q -0.182386,0 -0.329848,0.058208 -0.14358,0.054328 -0.228953,0.159103 -0.08149,0.1047751 -0.08149,0.2522364 0,0.1629835 0.09313,0.2677586 0.09313,0.1047751 0.244475,0.1746252 0.151342,0.065969 0.322087,0.1241779 0.166864,0.046567 0.318206,0.1086557 0.155222,0.058208 0.271639,0.1474613 0.120297,0.089253 0.186267,0.225072 0.06985,0.13582 0.06985,0.34149 0,0.197908 -0.112536,0.357011 -0.112537,0.159103 -0.310445,0.252237 -0.194028,0.09313 -0.457906,0.09701 z"
         style="fill:#ffffff"
         id="path92905" />
      <path
         d="M 27.58583,9.249514 H 28.49 q 0.04657,0 0.07761,0.034925 0.03104,0.031045 0.03104,0.077611 0,0.042686 -0.03104,0.073731 -0.03104,0.031045 -0.07761,0.031045 h -0.90417 q -0.04657,0 -0.08149,-0.031045 -0.03104,-0.034925 -0.03104,-0.077611 0,-0.046567 0.03104,-0.077611 0.03492,-0.031045 0.08149,-0.031045 z m 0.399697,-0.5471589 q 0.05045,0 0.08149,0.034925 0.03493,0.034925 0.03493,0.081492 v 1.9480411 q 0,0.108656 0.02716,0.162983 0.03104,0.05433 0.07761,0.07373 0.04657,0.01552 0.09313,0.01552 0.03104,0 0.05433,-0.0078 0.02716,-0.01164 0.05821,-0.01164 0.03492,0 0.05821,0.02716 0.02716,0.02716 0.02716,0.06985 0,0.05433 -0.06209,0.09313 -0.06209,0.03493 -0.147461,0.03493 -0.03493,0 -0.104775,-0.0039 -0.06985,-0.0078 -0.143581,-0.04269 -0.07373,-0.0388 -0.124178,-0.131939 -0.04657,-0.09313 -0.04657,-0.267758 V 8.8187719 q 0,-0.046567 0.03105,-0.081492 0.03492,-0.034925 0.08537,-0.034925 z"
         style="fill:#ffffff"
         id="path92907" />
      <path
         d="m 30.841625,10.231296 q 0,0.294922 -0.131939,0.531636 -0.128058,0.232834 -0.34925,0.368654 -0.221192,0.131939 -0.500592,0.131939 -0.27552,0 -0.500593,-0.131939 -0.221191,-0.13582 -0.35313,-0.368654 -0.128059,-0.236714 -0.128059,-0.531636 0,-0.2988034 0.128059,-0.531637 0.131939,-0.2328336 0.35313,-0.3686532 0.225073,-0.1358196 0.500593,-0.1358196 0.2794,0 0.500592,0.1358196 0.221192,0.1358196 0.34925,0.3686532 0.131939,0.2328336 0.131939,0.531637 z m -0.232833,0 q 0,-0.2367144 -0.09701,-0.4191008 -0.09701,-0.1862668 -0.267759,-0.291042 -0.166864,-0.1086556 -0.384175,-0.1086556 -0.213431,0 -0.384176,0.1086556 -0.166864,0.1047752 -0.267758,0.291042 -0.09701,0.1823864 -0.09701,0.4191008 0,0.236714 0.09701,0.4191 0.100894,0.182386 0.267758,0.291042 0.170745,0.104775 0.384176,0.104775 0.217311,0 0.384175,-0.104775 0.170745,-0.108656 0.267759,-0.291042 0.09701,-0.182386 0.09701,-0.4191 z"
         style="fill:#ffffff"
         id="path92909" />
      <path
         d="m 31.435348,11.224719 q -0.05433,0 -0.08537,-0.03493 -0.03105,-0.03492 -0.03105,-0.08149 V 9.3698114 q 0,-0.046567 0.03105,-0.081492 0.03492,-0.034925 0.08537,-0.034925 0.05045,0 0.08149,0.034925 0.03493,0.034925 0.03493,0.081492 v 0.582084 l -0.05821,0.011642 q 0.01164,-0.1358196 0.06597,-0.2677587 0.05821,-0.1358196 0.155223,-0.2483558 0.09701,-0.1125362 0.228953,-0.1823863 0.135819,-0.06985 0.302683,-0.06985 0.06985,0 0.13582,0.031045 0.06597,0.027164 0.06597,0.093133 0,0.058208 -0.03104,0.089253 -0.03104,0.031045 -0.07373,0.031045 -0.03493,0 -0.07761,-0.019403 -0.03881,-0.019403 -0.104775,-0.019403 -0.108656,0 -0.217311,0.065969 -0.108656,0.062089 -0.197909,0.1707446 -0.08925,0.1086557 -0.143581,0.2444753 -0.05045,0.1319387 -0.05045,0.2677587 v 0.958498 q 0,0.04657 -0.03493,0.08149 -0.03492,0.03493 -0.08149,0.03493 z"
         style="fill:#ffffff"
         id="path92911" />
      <path
         d="m 33.608465,11.263525 q -0.298803,0 -0.527756,-0.128059 -0.228953,-0.128058 -0.357011,-0.357011 -0.128059,-0.228953 -0.128059,-0.535518 0,-0.3298472 0.128059,-0.5626808 0.131939,-0.2328336 0.337608,-0.3570115 0.20955,-0.1280585 0.442384,-0.1280585 0.170745,0 0.329848,0.062089 0.162983,0.058208 0.287161,0.1785057 0.124178,0.1164168 0.201789,0.2871615 0.07761,0.1707446 0.08149,0.3958166 0,0.04657 -0.03492,0.08149 -0.03493,0.03105 -0.08149,0.03105 h -1.556104 l -0.04657,-0.209551 h 1.528941 l -0.05045,0.04657 V 9.990701 q -0.0194,-0.1823863 -0.120297,-0.3104448 -0.100895,-0.1280585 -0.244475,-0.194028 -0.139701,-0.065969 -0.294923,-0.065969 -0.116417,0 -0.240595,0.046567 -0.120297,0.046567 -0.221192,0.1474613 -0.09701,0.097014 -0.159103,0.2522364 -0.06209,0.1513419 -0.06209,0.3608919 0,0.228953 0.09313,0.41522 0.09313,0.186267 0.267759,0.294923 0.174625,0.108655 0.422981,0.108655 0.131939,0 0.240594,-0.0388 0.108656,-0.03881 0.190148,-0.100895 0.08537,-0.06597 0.1397,-0.135819 0.04269,-0.03493 0.08149,-0.03493 0.04269,0 0.06985,0.03105 0.03104,0.03104 0.03104,0.06985 0,0.04657 -0.03881,0.08149 -0.116417,0.1397 -0.302684,0.244475 -0.186267,0.100895 -0.407459,0.100895 z"
         style="fill:#ffffff"
         id="path92913" />
    </g>
  </g>
</svg>
